<mxfile host="drawio-plugin" modified="2021-07-16T01:20:32.765Z" agent="5.0 (Macintosh; Intel Mac OS X 11_2_1) AppleWebKit/537.36 (KHTML, like Gecko) Chrome/89.0.4389.90 Safari/537.36" etag="0XGji23c5RAugHTiBUug" version="14.7.4" type="embed"><diagram id="TYB7NlHMd5oe03PsHszr" name="Page-1"><mxGraphModel dx="1907" dy="574" grid="1" gridSize="10" guides="1" tooltips="1" connect="1" arrows="1" fold="1" page="1" pageScale="1" pageWidth="850" pageHeight="1100" math="0" shadow="0"><root><mxCell id="0"/><mxCell id="1" parent="0"/><mxCell id="4" value="" style="edgeStyle=orthogonalEdgeStyle;rounded=0;orthogonalLoop=1;jettySize=auto;html=1;fontFamily=Times New Roman;" parent="1" source="2" target="3" edge="1"><mxGeometry relative="1" as="geometry"/></mxCell><mxCell id="2" value="solve the matrix" style="strokeWidth=2;html=1;shape=mxgraph.flowchart.start_1;whiteSpace=wrap;fontFamily=Times New Roman;" parent="1" vertex="1"><mxGeometry x="260" y="80" width="100" height="30" as="geometry"/></mxCell><mxCell id="6" value="" style="edgeStyle=orthogonalEdgeStyle;rounded=0;orthogonalLoop=1;jettySize=auto;html=1;fontFamily=Times New Roman;" parent="1" source="3" target="5" edge="1"><mxGeometry relative="1" as="geometry"/></mxCell><mxCell id="3" value="get its RREF as array" style="shape=parallelogram;perimeter=parallelogramPerimeter;whiteSpace=wrap;html=1;fixedSize=1;strokeWidth=2;fontFamily=Times New Roman;" parent="1" vertex="1"><mxGeometry x="215" y="130" width="190" height="20" as="geometry"/></mxCell><mxCell id="8" value="yes" style="edgeStyle=orthogonalEdgeStyle;rounded=0;orthogonalLoop=1;jettySize=auto;html=1;fontFamily=Times New Roman;" parent="1" source="5" target="7" edge="1"><mxGeometry x="0.2006" relative="1" as="geometry"><mxPoint as="offset"/></mxGeometry></mxCell><mxCell id="24" value="no" style="edgeStyle=orthogonalEdgeStyle;rounded=0;orthogonalLoop=1;jettySize=auto;html=1;fontFamily=Times New Roman;" parent="1" source="5" target="23" edge="1"><mxGeometry relative="1" as="geometry"/></mxCell><mxCell id="5" value="last pivot in last column&lt;br&gt;piC.get(piC.size() - 1) == co - 1" style="rhombus;whiteSpace=wrap;html=1;strokeWidth=2;fontFamily=Times New Roman;" parent="1" vertex="1"><mxGeometry x="172.5" y="170" width="275" height="70" as="geometry"/></mxCell><mxCell id="7" value="no solution" style="shape=parallelogram;perimeter=parallelogramPerimeter;whiteSpace=wrap;html=1;fixedSize=1;fontFamily=Times New Roman;strokeWidth=2;" parent="1" vertex="1"><mxGeometry x="475" y="197.5" width="120" height="15" as="geometry"/></mxCell><mxCell id="14" value="piNow" style="shape=parallelogram;html=1;strokeWidth=2;perimeter=parallelogramPerimeter;whiteSpace=wrap;rounded=1;arcSize=12;size=0.23;fontFamily=Times New Roman;" parent="1" vertex="1"><mxGeometry x="260" y="501.25" width="100" height="20" as="geometry"/></mxCell><mxCell id="17" value="sol[][]" style="shape=parallelogram;html=1;strokeWidth=2;perimeter=parallelogramPerimeter;whiteSpace=wrap;rounded=1;arcSize=12;size=0.23;fontFamily=Times New Roman;" parent="1" vertex="1"><mxGeometry x="260" y="840" width="100" height="20" as="geometry"/></mxCell><mxCell id="26" value="yes" style="edgeStyle=orthogonalEdgeStyle;rounded=0;orthogonalLoop=1;jettySize=auto;html=1;fontFamily=Times New Roman;" parent="1" source="23" target="25" edge="1"><mxGeometry relative="1" as="geometry"/></mxCell><mxCell id="36" value="no" style="edgeStyle=orthogonalEdgeStyle;rounded=0;orthogonalLoop=1;jettySize=auto;html=1;fontFamily=Times New Roman;" parent="1" source="23" target="35" edge="1"><mxGeometry relative="1" as="geometry"/></mxCell><mxCell id="23" value="freeVar().length == 0&lt;br&gt;it has 1 solution" style="rhombus;whiteSpace=wrap;html=1;fontFamily=Times New Roman;strokeWidth=2;" parent="1" vertex="1"><mxGeometry x="200" y="280" width="220" height="55" as="geometry"/></mxCell><mxCell id="28" value="" style="edgeStyle=orthogonalEdgeStyle;rounded=0;orthogonalLoop=1;jettySize=auto;html=1;fontFamily=Times New Roman;" parent="1" source="25" target="27" edge="1"><mxGeometry relative="1" as="geometry"/></mxCell><mxCell id="29" style="rounded=0;orthogonalLoop=1;jettySize=auto;html=1;exitX=1;exitY=0;exitDx=0;exitDy=0;entryX=0;entryY=1;entryDx=0;entryDy=0;fontFamily=Times New Roman;strokeColor=none;dashed=1;dashPattern=1 1;" parent="1" source="25" target="17" edge="1"><mxGeometry relative="1" as="geometry"/></mxCell><mxCell id="31" style="edgeStyle=none;rounded=0;orthogonalLoop=1;jettySize=auto;html=1;exitX=0;exitY=1;exitDx=0;exitDy=0;entryX=1;entryY=0;entryDx=0;entryDy=0;dashed=1;dashPattern=1 1;fontFamily=Times New Roman;" parent="1" source="25" target="17" edge="1"><mxGeometry relative="1" as="geometry"/></mxCell><mxCell id="25" value="set solution to&amp;nbsp;&lt;span style=&quot;background-color: rgb(255 , 255 , 255) ; font-size: 9.8pt&quot;&gt;[freeVar().&lt;/span&gt;&lt;span style=&quot;font-size: 9.8pt ; color: rgb(102 , 14 , 122) ; font-weight: bold&quot;&gt;length &lt;/span&gt;&lt;span style=&quot;background-color: rgb(255 , 255 , 255) ; font-size: 9.8pt&quot;&gt;+ &lt;/span&gt;&lt;span style=&quot;font-size: 9.8pt ; color: rgb(0 , 0 , 255)&quot;&gt;1&lt;/span&gt;&lt;span style=&quot;background-color: rgb(255 , 255 , 255) ; font-size: 9.8pt&quot;&gt;][&lt;/span&gt;&lt;span style=&quot;font-size: 9.8pt ; color: rgb(102 , 14 , 122) ; font-weight: bold&quot;&gt;co &lt;/span&gt;&lt;span style=&quot;background-color: rgb(255 , 255 , 255) ; font-size: 9.8pt&quot;&gt;- &lt;/span&gt;&lt;span style=&quot;font-size: 9.8pt ; color: rgb(0 , 0 , 255)&quot;&gt;1&lt;/span&gt;&lt;span style=&quot;background-color: rgb(255 , 255 , 255) ; font-size: 9.8pt&quot;&gt;]&lt;/span&gt;&lt;br&gt;and initialize it with 0s" style="whiteSpace=wrap;html=1;fontFamily=Times New Roman;strokeWidth=2;" parent="1" vertex="1"><mxGeometry x="600" y="288.25" width="230" height="40" as="geometry"/></mxCell><mxCell id="33" value="" style="edgeStyle=orthogonalEdgeStyle;rounded=0;orthogonalLoop=1;jettySize=auto;html=1;fontFamily=Times New Roman;" parent="1" source="27" target="32" edge="1"><mxGeometry relative="1" as="geometry"/></mxCell><mxCell id="37" style="rounded=0;orthogonalLoop=1;jettySize=auto;html=1;exitX=0;exitY=1;exitDx=0;exitDy=0;entryX=1;entryY=0;entryDx=0;entryDy=0;fontFamily=Times New Roman;dashed=1;dashPattern=1 1;" parent="1" source="27" target="14" edge="1"><mxGeometry relative="1" as="geometry"/></mxCell><mxCell id="27" value="go from the last pivot to the first&lt;br&gt;pivot (&lt;span style=&quot;font-size: 9.8pt ; color: rgb(102 , 14 , 122) ; font-weight: bold&quot;&gt;piC&lt;/span&gt;&lt;span style=&quot;background-color: rgb(255 , 255 , 255) ; font-size: 9.8pt&quot;&gt;.size() - &lt;/span&gt;&lt;span style=&quot;font-size: 9.8pt ; color: rgb(0 , 0 , 255)&quot;&gt;1&lt;/span&gt;&lt;span&gt;) to 0&lt;br&gt;&lt;/span&gt;&lt;div style=&quot;background-color: rgb(255, 255, 255); font-size: 9.8pt;&quot;&gt;piNow = &lt;span style=&quot;color: #660e7a ; font-weight: bold&quot;&gt;piC&lt;/span&gt;.size() - &lt;span style=&quot;color: #0000ff&quot;&gt;1&lt;/span&gt;&lt;/div&gt;" style="whiteSpace=wrap;html=1;fontFamily=Times New Roman;strokeWidth=2;" parent="1" vertex="1"><mxGeometry x="605" y="348.25" width="220" height="50" as="geometry"/></mxCell><mxCell id="40" value="yes" style="edgeStyle=orthogonalEdgeStyle;orthogonalLoop=1;jettySize=auto;html=1;fontFamily=Times New Roman;rounded=0;" parent="1" source="32" target="39" edge="1"><mxGeometry relative="1" as="geometry"/></mxCell><mxCell id="41" value="no" style="edgeStyle=orthogonalEdgeStyle;rounded=0;orthogonalLoop=1;jettySize=auto;html=1;exitX=0;exitY=0.5;exitDx=0;exitDy=0;fontFamily=Times New Roman;entryX=0.5;entryY=0;entryDx=0;entryDy=0;entryPerimeter=0;" parent="1" source="32" target="55" edge="1"><mxGeometry x="-0.8209" relative="1" as="geometry"><mxPoint x="970" y="461" as="targetPoint"/><Array as="points"><mxPoint x="410" y="461"/><mxPoint x="410" y="870"/><mxPoint x="715" y="870"/></Array><mxPoint as="offset"/></mxGeometry></mxCell><mxCell id="32" value="&lt;div style=&quot;background-color: rgb(255, 255, 255); color: rgb(0, 0, 0); font-size: 9.8pt;&quot;&gt;not before the first pivot&lt;/div&gt;&lt;div style=&quot;background-color: rgb(255, 255, 255); color: rgb(0, 0, 0); font-size: 9.8pt;&quot;&gt;piNow &amp;gt;= &lt;span style=&quot;color: #0000ff&quot;&gt;0&lt;/span&gt;&lt;/div&gt;" style="rhombus;whiteSpace=wrap;html=1;fontFamily=Times New Roman;strokeWidth=2;" parent="1" vertex="1"><mxGeometry x="595" y="428.25" width="240" height="65" as="geometry"/></mxCell><mxCell id="60" value="" style="rounded=0;orthogonalLoop=1;jettySize=auto;html=1;fontFamily=Times New Roman;edgeStyle=orthogonalEdgeStyle;" parent="1" source="35" target="59" edge="1"><mxGeometry relative="1" as="geometry"/></mxCell><mxCell id="35" value="it has infinite solutions" style="whiteSpace=wrap;html=1;fontFamily=Times New Roman;strokeWidth=2;" parent="1" vertex="1"><mxGeometry x="-210" y="292" width="120" height="32.5" as="geometry"/></mxCell><mxCell id="43" value="" style="edgeStyle=orthogonalEdgeStyle;rounded=0;orthogonalLoop=1;jettySize=auto;html=1;fontFamily=Times New Roman;" parent="1" source="39" target="42" edge="1"><mxGeometry relative="1" as="geometry"/></mxCell><mxCell id="39" value="add the constant to the pivot variable&lt;br&gt;&lt;div style=&quot;background-color: rgb(255, 255, 255); font-size: 9.8pt;&quot;&gt;&lt;span style=&quot;color: #660e7a ; font-weight: bold&quot;&gt;sol&lt;/span&gt;[&lt;span style=&quot;color: #0000ff&quot;&gt;0&lt;/span&gt;][&lt;span style=&quot;color: #660e7a ; font-weight: bold&quot;&gt;piC&lt;/span&gt;.get(piNow)] = &lt;span style=&quot;color: #660e7a ; font-weight: bold&quot;&gt;rref&lt;/span&gt;[piNow][&lt;span style=&quot;color: #660e7a ; font-weight: bold&quot;&gt;co &lt;/span&gt;- &lt;span style=&quot;color: #0000ff&quot;&gt;1&lt;/span&gt;]&lt;/div&gt;" style="whiteSpace=wrap;html=1;fontFamily=Times New Roman;strokeWidth=2;" parent="1" vertex="1"><mxGeometry x="576.25" y="521.25" width="277.5" height="48.75" as="geometry"/></mxCell><mxCell id="45" style="rounded=0;orthogonalLoop=1;jettySize=auto;html=1;exitX=0;exitY=1;exitDx=0;exitDy=0;entryX=1;entryY=0;entryDx=0;entryDy=0;fontFamily=Times New Roman;dashed=1;dashPattern=1 1;" parent="1" source="42" target="44" edge="1"><mxGeometry relative="1" as="geometry"/></mxCell><mxCell id="47" value="" style="edgeStyle=orthogonalEdgeStyle;rounded=0;orthogonalLoop=1;jettySize=auto;html=1;fontFamily=Times New Roman;" parent="1" source="42" target="46" edge="1"><mxGeometry relative="1" as="geometry"/></mxCell><mxCell id="42" value="check from the right to the entry to the rightmost&lt;br&gt;subtract the variables&lt;br&gt;&lt;div style=&quot;background-color: rgb(255, 255, 255); font-size: 9.8pt;&quot;&gt;iC = &lt;span style=&quot;color: #660e7a ; font-weight: bold&quot;&gt;piC&lt;/span&gt;.get(piNow) + &lt;span style=&quot;color: #0000ff&quot;&gt;1&lt;/span&gt;&lt;/div&gt;" style="whiteSpace=wrap;html=1;fontFamily=Times New Roman;strokeWidth=2;" parent="1" vertex="1"><mxGeometry x="592.5" y="601.25" width="245" height="55.62" as="geometry"/></mxCell><mxCell id="44" value="iC" style="shape=parallelogram;html=1;strokeWidth=2;perimeter=parallelogramPerimeter;whiteSpace=wrap;rounded=1;arcSize=12;size=0.23;fontFamily=Times New Roman;" parent="1" vertex="1"><mxGeometry x="260" y="650" width="100" height="20" as="geometry"/></mxCell><mxCell id="49" value="yes" style="edgeStyle=orthogonalEdgeStyle;rounded=0;orthogonalLoop=1;jettySize=auto;html=1;fontFamily=Times New Roman;" parent="1" source="46" target="48" edge="1"><mxGeometry relative="1" as="geometry"/></mxCell><mxCell id="50" value="no" style="edgeStyle=orthogonalEdgeStyle;rounded=0;orthogonalLoop=1;jettySize=auto;html=1;exitX=1;exitY=0.5;exitDx=0;exitDy=0;fontFamily=Times New Roman;entryX=0.5;entryY=1;entryDx=0;entryDy=0;" parent="1" source="46" target="70" edge="1"><mxGeometry relative="1" as="geometry"><mxPoint x="870" y="720" as="targetPoint"/><Array as="points"><mxPoint x="894" y="720"/></Array></mxGeometry></mxCell><mxCell id="46" value="&lt;div style=&quot;background-color: rgb(255, 255, 255); color: rgb(0, 0, 0); font-size: 9.8pt;&quot;&gt;still have column to check&lt;/div&gt;&lt;div style=&quot;background-color: rgb(255, 255, 255); color: rgb(0, 0, 0); font-size: 9.8pt;&quot;&gt;iC &amp;lt; &lt;span style=&quot;color: #660e7a ; font-weight: bold&quot;&gt;co &lt;/span&gt;- &lt;span style=&quot;color: #0000ff&quot;&gt;1&lt;/span&gt;&lt;/div&gt;" style="rhombus;whiteSpace=wrap;html=1;fontFamily=Times New Roman;strokeWidth=2;" parent="1" vertex="1"><mxGeometry x="612.5" y="680" width="205" height="80" as="geometry"/></mxCell><mxCell id="52" value="" style="edgeStyle=orthogonalEdgeStyle;rounded=0;orthogonalLoop=1;jettySize=auto;html=1;fontFamily=Times New Roman;entryX=0;entryY=0.5;entryDx=0;entryDy=0;exitX=0;exitY=0.5;exitDx=0;exitDy=0;" parent="1" source="48" target="72" edge="1"><mxGeometry relative="1" as="geometry"><mxPoint x="715" y="860" as="targetPoint"/><Array as="points"><mxPoint x="438" y="820"/><mxPoint x="438" y="720"/><mxPoint x="490" y="720"/></Array></mxGeometry></mxCell><mxCell id="56" style="rounded=0;orthogonalLoop=1;jettySize=auto;html=1;exitX=0;exitY=0;exitDx=0;exitDy=0;entryX=1;entryY=0;entryDx=0;entryDy=0;fontFamily=Times New Roman;dashed=1;dashPattern=1 1;" parent="1" source="48" target="17" edge="1"><mxGeometry relative="1" as="geometry"/></mxCell><mxCell id="48" value="&lt;div style=&quot;background-color: rgb(255, 255, 255); font-size: 9.8pt;&quot;&gt;&lt;span style=&quot;font-weight: bold&quot;&gt;subtract the other variables&lt;/span&gt;&lt;/div&gt;&lt;div style=&quot;background-color: rgb(255, 255, 255); color: rgb(0, 0, 0); font-size: 9.8pt;&quot;&gt;&lt;span style=&quot;color: #660e7a ; font-weight: bold&quot;&gt;sol&lt;/span&gt;[&lt;span style=&quot;color: #0000ff&quot;&gt;0&lt;/span&gt;][&lt;span style=&quot;color: #660e7a ; font-weight: bold&quot;&gt;piC&lt;/span&gt;.get(piNow)] = &lt;span style=&quot;color: #660e7a ; font-weight: bold&quot;&gt;sol&lt;/span&gt;[&lt;span style=&quot;color: #0000ff&quot;&gt;0&lt;/span&gt;][&lt;span style=&quot;color: #660e7a ; font-weight: bold&quot;&gt;piC&lt;/span&gt;.get(piNow)].subtract(&lt;span style=&quot;color: #660e7a ; font-weight: bold&quot;&gt;rref&lt;/span&gt;[piNow][iC].multiply(&lt;span style=&quot;color: #660e7a ; font-weight: bold&quot;&gt;sol&lt;/span&gt;[&lt;span style=&quot;color: #0000ff&quot;&gt;0&lt;/span&gt;][iC]))&lt;/div&gt;" style="whiteSpace=wrap;html=1;fontFamily=Times New Roman;strokeWidth=2;" parent="1" vertex="1"><mxGeometry x="457.5" y="800" width="515" height="40" as="geometry"/></mxCell><mxCell id="55" value="translate&amp;nbsp;&lt;span style=&quot;color: rgb(102, 14, 122); font-weight: bold; background-color: rgb(255, 255, 255); font-size: 9.8pt;&quot;&gt;sol&lt;/span&gt;&lt;span&gt;&amp;nbsp;to a vector array and return that&lt;/span&gt;" style="strokeWidth=2;html=1;shape=mxgraph.flowchart.terminator;whiteSpace=wrap;fontFamily=Times New Roman;" parent="1" vertex="1"><mxGeometry x="582.5" y="920" width="265" height="20" as="geometry"/></mxCell><mxCell id="57" value="piC" style="strokeWidth=2;html=1;shape=mxgraph.flowchart.stored_data;whiteSpace=wrap;fontFamily=Times New Roman;" parent="1" vertex="1"><mxGeometry x="260" y="368" width="100" height="22" as="geometry"/></mxCell><mxCell id="58" value="freeVar" style="strokeWidth=2;html=1;shape=mxgraph.flowchart.stored_data;whiteSpace=wrap;fontFamily=Times New Roman;" parent="1" vertex="1"><mxGeometry x="260" y="440" width="100" height="20" as="geometry"/></mxCell><mxCell id="62" value="" style="edgeStyle=orthogonalEdgeStyle;rounded=0;orthogonalLoop=1;jettySize=auto;html=1;fontFamily=Times New Roman;" parent="1" source="59" target="61" edge="1"><mxGeometry relative="1" as="geometry"/></mxCell><mxCell id="81" style="edgeStyle=none;rounded=0;orthogonalLoop=1;jettySize=auto;html=1;exitX=1;exitY=1;exitDx=0;exitDy=0;dashed=1;dashPattern=1 1;entryX=0;entryY=1;entryDx=0;entryDy=0;" parent="1" source="59" edge="1" target="17"><mxGeometry relative="1" as="geometry"><mxPoint x="260" y="600" as="targetPoint"/></mxGeometry></mxCell><mxCell id="59" value="initialize the array to&amp;nbsp;&lt;span style=&quot;background-color: rgb(255, 255, 255); font-size: 9.8pt;&quot;&gt;[freeVar().&lt;/span&gt;&lt;span style=&quot;font-size: 9.8pt; color: rgb(102, 14, 122); font-weight: bold;&quot;&gt;length &lt;/span&gt;&lt;span style=&quot;background-color: rgb(255, 255, 255); font-size: 9.8pt;&quot;&gt;+ &lt;/span&gt;&lt;span style=&quot;font-size: 9.8pt; color: rgb(0, 0, 255);&quot;&gt;1&lt;/span&gt;&lt;span style=&quot;background-color: rgb(255, 255, 255); font-size: 9.8pt;&quot;&gt;][&lt;/span&gt;&lt;span style=&quot;font-size: 9.8pt; color: rgb(102, 14, 122); font-weight: bold;&quot;&gt;co &lt;/span&gt;&lt;span style=&quot;background-color: rgb(255, 255, 255); font-size: 9.8pt;&quot;&gt;- &lt;/span&gt;&lt;span style=&quot;font-size: 9.8pt; color: rgb(0, 0, 255);&quot;&gt;1&lt;/span&gt;&lt;span style=&quot;background-color: rgb(255, 255, 255); font-size: 9.8pt;&quot;&gt;]&lt;/span&gt;&lt;br&gt;all 0 except 1 for the places corresponding the free variables" style="whiteSpace=wrap;html=1;fontFamily=Times New Roman;strokeWidth=2;" parent="1" vertex="1"><mxGeometry x="-302.5" y="354.37" width="305" height="49.25" as="geometry"/></mxCell><mxCell id="64" value="" style="edgeStyle=orthogonalEdgeStyle;rounded=0;orthogonalLoop=1;jettySize=auto;html=1;fontFamily=Times New Roman;" parent="1" source="61" target="63" edge="1"><mxGeometry relative="1" as="geometry"/></mxCell><mxCell id="82" style="edgeStyle=none;rounded=0;orthogonalLoop=1;jettySize=auto;html=1;exitX=1;exitY=1;exitDx=0;exitDy=0;dashed=1;dashPattern=1 1;entryX=0;entryY=1;entryDx=0;entryDy=0;" parent="1" source="61" edge="1" target="17"><mxGeometry relative="1" as="geometry"><mxPoint x="260" y="600" as="targetPoint"/></mxGeometry></mxCell><mxCell id="61" value="initialize the first row of sol with 0&lt;br&gt;these will be constants&lt;br&gt;&lt;div style=&quot;background-color: rgb(255, 255, 255); font-size: 9.8pt;&quot;&gt;&lt;span style=&quot;color: #000080 ; font-weight: bold&quot;&gt;for &lt;/span&gt;(&lt;span style=&quot;color: #000080 ; font-weight: bold&quot;&gt;int &lt;/span&gt;j = &lt;span style=&quot;color: #0000ff&quot;&gt;0&lt;/span&gt;; j &amp;lt; &lt;span style=&quot;color: #660e7a ; font-weight: bold&quot;&gt;co &lt;/span&gt;- &lt;span style=&quot;color: #0000ff&quot;&gt;1&lt;/span&gt;; j++) &lt;span style=&quot;color: #660e7a ; font-weight: bold&quot;&gt;sol&lt;/span&gt;[&lt;span style=&quot;color: #0000ff&quot;&gt;0&lt;/span&gt;][j] = BigDecimal.&lt;span style=&quot;color: #660e7a ; font-weight: bold ; font-style: italic&quot;&gt;ZERO&lt;/span&gt;&lt;/div&gt;" style="whiteSpace=wrap;html=1;fontFamily=Times New Roman;strokeWidth=2;" parent="1" vertex="1"><mxGeometry x="-315" y="433.25" width="330" height="60" as="geometry"/></mxCell><mxCell id="79" style="edgeStyle=orthogonalEdgeStyle;rounded=0;orthogonalLoop=1;jettySize=auto;html=1;exitX=0.5;exitY=1;exitDx=0;exitDy=0;entryX=0.5;entryY=0;entryDx=0;entryDy=0;" parent="1" source="63" target="76" edge="1"><mxGeometry relative="1" as="geometry"/></mxCell><mxCell id="83" style="edgeStyle=none;rounded=0;orthogonalLoop=1;jettySize=auto;html=1;exitX=1;exitY=1;exitDx=0;exitDy=0;dashed=1;dashPattern=1 1;entryX=0;entryY=1;entryDx=0;entryDy=0;" parent="1" source="63" edge="1" target="17"><mxGeometry relative="1" as="geometry"><mxPoint x="260" y="600" as="targetPoint"/></mxGeometry></mxCell><mxCell id="63" value="initialize the rest of the rows&lt;br&gt;&lt;div style=&quot;background-color: rgb(255 , 255 , 255) ; font-size: 9.8pt&quot;&gt;set all the values to 0&lt;/div&gt;&lt;div style=&quot;background-color: rgb(255 , 255 , 255) ; font-size: 9.8pt&quot;&gt;set all values corresponding to free variables to 1&lt;/div&gt;" style="whiteSpace=wrap;html=1;fontFamily=Times New Roman;strokeWidth=2;" parent="1" vertex="1"><mxGeometry x="-292.5" y="520" width="285" height="50" as="geometry"/></mxCell><mxCell id="71" style="edgeStyle=orthogonalEdgeStyle;rounded=0;orthogonalLoop=1;jettySize=auto;html=1;exitX=0.5;exitY=0;exitDx=0;exitDy=0;entryX=1;entryY=0.5;entryDx=0;entryDy=0;" parent="1" source="70" target="32" edge="1"><mxGeometry relative="1" as="geometry"/></mxCell><mxCell id="70" value="piNow--" style="whiteSpace=wrap;html=1;fontFamily=Times New Roman;strokeWidth=2;" parent="1" vertex="1"><mxGeometry x="860" y="581.25" width="67.5" height="30" as="geometry"/></mxCell><mxCell id="74" value="" style="edgeStyle=orthogonalEdgeStyle;rounded=0;orthogonalLoop=1;jettySize=auto;html=1;" parent="1" source="72" target="46" edge="1"><mxGeometry relative="1" as="geometry"/></mxCell><mxCell id="72" value="iC++" style="whiteSpace=wrap;html=1;fontFamily=Times New Roman;strokeWidth=2;" parent="1" vertex="1"><mxGeometry x="510" y="705" width="50" height="30" as="geometry"/></mxCell><mxCell id="75" value="" style="edgeStyle=orthogonalEdgeStyle;rounded=0;orthogonalLoop=1;jettySize=auto;html=1;fontFamily=Times New Roman;" parent="1" source="76" target="77" edge="1"><mxGeometry relative="1" as="geometry"/></mxCell><mxCell id="80" style="rounded=0;orthogonalLoop=1;jettySize=auto;html=1;exitX=1;exitY=1;exitDx=0;exitDy=0;entryX=0;entryY=1;entryDx=0;entryDy=0;dashed=1;dashPattern=1 1;" parent="1" source="76" target="14" edge="1"><mxGeometry relative="1" as="geometry"/></mxCell><mxCell id="76" value="go from the last pivot to the first&lt;br&gt;pivot (&lt;span style=&quot;font-size: 9.8pt ; color: rgb(102 , 14 , 122) ; font-weight: bold&quot;&gt;piC&lt;/span&gt;&lt;span style=&quot;background-color: rgb(255 , 255 , 255) ; font-size: 9.8pt&quot;&gt;.size() - &lt;/span&gt;&lt;span style=&quot;font-size: 9.8pt ; color: rgb(0 , 0 , 255)&quot;&gt;1&lt;/span&gt;&lt;span&gt;) to 0&lt;br&gt;&lt;/span&gt;&lt;div style=&quot;background-color: rgb(255, 255, 255); font-size: 9.8pt;&quot;&gt;piNow = &lt;span style=&quot;color: #660e7a ; font-weight: bold&quot;&gt;piC&lt;/span&gt;.size() - &lt;span style=&quot;color: #0000ff&quot;&gt;1&lt;/span&gt;&lt;/div&gt;" style="whiteSpace=wrap;html=1;fontFamily=Times New Roman;strokeWidth=2;" parent="1" vertex="1"><mxGeometry x="-260" y="601.25" width="220" height="50" as="geometry"/></mxCell><mxCell id="85" value="" style="edgeStyle=orthogonalEdgeStyle;rounded=0;orthogonalLoop=1;jettySize=auto;html=1;" edge="1" parent="1" source="77" target="84"><mxGeometry relative="1" as="geometry"/></mxCell><mxCell id="77" value="&lt;div style=&quot;background-color: rgb(255, 255, 255); color: rgb(0, 0, 0); font-size: 9.8pt;&quot;&gt;not before the first pivot&lt;/div&gt;&lt;div style=&quot;background-color: rgb(255, 255, 255); color: rgb(0, 0, 0); font-size: 9.8pt;&quot;&gt;piNow &amp;gt;= &lt;span style=&quot;color: #0000ff&quot;&gt;0&lt;/span&gt;&lt;/div&gt;" style="rhombus;whiteSpace=wrap;html=1;fontFamily=Times New Roman;strokeWidth=2;" parent="1" vertex="1"><mxGeometry x="-270" y="681.25" width="240" height="65" as="geometry"/></mxCell><mxCell id="87" value="" style="edgeStyle=orthogonalEdgeStyle;rounded=0;orthogonalLoop=1;jettySize=auto;html=1;fontFamily=Times New Roman;" edge="1" parent="1" source="84" target="86"><mxGeometry relative="1" as="geometry"/></mxCell><mxCell id="89" style="rounded=0;orthogonalLoop=1;jettySize=auto;html=1;exitX=1;exitY=0;exitDx=0;exitDy=0;entryX=0;entryY=1;entryDx=0;entryDy=0;fontFamily=Times New Roman;dashed=1;dashPattern=1 1;" edge="1" parent="1" source="84" target="88"><mxGeometry relative="1" as="geometry"/></mxCell><mxCell id="84" value="for convenience&lt;br&gt;store&amp;nbsp;&lt;span style=&quot;font-size: 9.8pt ; color: rgb(102 , 14 , 122) ; font-weight: bold&quot;&gt;piC&lt;/span&gt;&lt;span style=&quot;background-color: rgb(255 , 255 , 255) ; font-size: 9.8pt&quot;&gt;.get(piNow)&lt;/span&gt;&lt;span&gt;&amp;nbsp;as pC&lt;br&gt;&lt;/span&gt;add the constant to the pivot variable&lt;br&gt;&lt;div style=&quot;background-color: rgb(255, 255, 255); font-size: 9.8pt;&quot;&gt;&lt;span style=&quot;color: #660e7a ; font-weight: bold&quot;&gt;sol&lt;/span&gt;[&lt;span style=&quot;color: #0000ff&quot;&gt;0&lt;/span&gt;][pC] = &lt;span style=&quot;color: #660e7a ; font-weight: bold&quot;&gt;rref&lt;/span&gt;[piNow][&lt;span style=&quot;color: #660e7a ; font-weight: bold&quot;&gt;co &lt;/span&gt;- &lt;span style=&quot;color: #0000ff&quot;&gt;1&lt;/span&gt;]&lt;/div&gt;" style="whiteSpace=wrap;html=1;fontFamily=Times New Roman;strokeWidth=2;" vertex="1" parent="1"><mxGeometry x="-255" y="770" width="210" height="70" as="geometry"/></mxCell><mxCell id="90" style="edgeStyle=none;rounded=0;orthogonalLoop=1;jettySize=auto;html=1;exitX=1;exitY=0;exitDx=0;exitDy=0;entryX=0;entryY=1;entryDx=0;entryDy=0;dashed=1;dashPattern=1 1;fontFamily=Times New Roman;" edge="1" parent="1" source="86" target="44"><mxGeometry relative="1" as="geometry"/></mxCell><mxCell id="92" value="" style="edgeStyle=orthogonalEdgeStyle;rounded=0;orthogonalLoop=1;jettySize=auto;html=1;fontFamily=Times New Roman;" edge="1" parent="1" source="86" target="91"><mxGeometry relative="1" as="geometry"/></mxCell><mxCell id="86" value="check entries to the right&lt;br&gt;&lt;div style=&quot;background-color: rgb(255, 255, 255); font-size: 9.8pt;&quot;&gt;iC = pC + &lt;span style=&quot;color: #0000ff&quot;&gt;1&lt;/span&gt;&lt;/div&gt;" style="whiteSpace=wrap;html=1;fontFamily=Times New Roman;strokeWidth=2;" vertex="1" parent="1"><mxGeometry x="-220" y="875" width="140" height="45" as="geometry"/></mxCell><mxCell id="88" value="pC" style="shape=parallelogram;html=1;strokeWidth=2;perimeter=parallelogramPerimeter;whiteSpace=wrap;rounded=1;arcSize=12;size=0.23;fontFamily=Times New Roman;" vertex="1" parent="1"><mxGeometry x="260" y="715" width="100" height="20" as="geometry"/></mxCell><mxCell id="94" value="yes" style="edgeStyle=orthogonalEdgeStyle;rounded=0;orthogonalLoop=1;jettySize=auto;html=1;fontFamily=Times New Roman;" edge="1" parent="1" source="91" target="93"><mxGeometry relative="1" as="geometry"/></mxCell><mxCell id="116" value="no" style="edgeStyle=orthogonalEdgeStyle;rounded=0;orthogonalLoop=1;jettySize=auto;html=1;fontFamily=Times New Roman;entryX=1;entryY=0.5;entryDx=0;entryDy=0;" edge="1" parent="1" source="91" target="115"><mxGeometry x="-0.8476" relative="1" as="geometry"><Array as="points"><mxPoint x="130" y="989"/><mxPoint x="130" y="1700"/></Array><mxPoint as="offset"/></mxGeometry></mxCell><mxCell id="91" value="enough columns&lt;br&gt;&lt;div style=&quot;background-color: rgb(255, 255, 255); font-size: 9.8pt;&quot;&gt;iC &amp;lt; &lt;span style=&quot;color: #660e7a ; font-weight: bold&quot;&gt;co &lt;/span&gt;- &lt;span style=&quot;color: #0000ff&quot;&gt;1&lt;/span&gt;&lt;/div&gt;" style="rhombus;whiteSpace=wrap;html=1;fontFamily=Times New Roman;strokeWidth=2;" vertex="1" parent="1"><mxGeometry x="-220" y="960" width="140" height="57.5" as="geometry"/></mxCell><mxCell id="96" value="" style="edgeStyle=orthogonalEdgeStyle;rounded=0;orthogonalLoop=1;jettySize=auto;html=1;fontFamily=Times New Roman;" edge="1" parent="1" source="93" target="95"><mxGeometry relative="1" as="geometry"/></mxCell><mxCell id="121" style="edgeStyle=none;rounded=0;orthogonalLoop=1;jettySize=auto;html=1;exitX=1;exitY=0;exitDx=0;exitDy=0;entryX=0;entryY=1;entryDx=0;entryDy=0;dashed=1;dashPattern=1 1;fontFamily=Times New Roman;" edge="1" parent="1" source="93" target="120"><mxGeometry relative="1" as="geometry"/></mxCell><mxCell id="123" style="edgeStyle=none;rounded=0;orthogonalLoop=1;jettySize=auto;html=1;exitX=1;exitY=0.5;exitDx=0;exitDy=0;entryX=0;entryY=1;entryDx=0;entryDy=0;dashed=1;dashPattern=1 1;fontFamily=Times New Roman;" edge="1" parent="1" source="93" target="122"><mxGeometry relative="1" as="geometry"/></mxCell><mxCell id="93" value="&lt;div style=&quot;background-color: rgb(255 , 255 , 255) ; color: rgb(0 , 0 , 0) ; font-size: 9.8pt&quot;&gt;&lt;span style=&quot;color: #808080 ; font-style: italic&quot;&gt;store the value of the element as tempDec&lt;/span&gt;&lt;/div&gt;&lt;div style=&quot;background-color: rgb(255 , 255 , 255) ; color: rgb(0 , 0 , 0) ; font-size: 9.8pt&quot;&gt;&lt;div style=&quot;font-size: 9.8pt&quot;&gt;tempDec = &lt;span style=&quot;color: #660e7a ; font-weight: bold&quot;&gt;rref&lt;/span&gt;[piNow][iC]&lt;/div&gt;&lt;div style=&quot;font-size: 9.8pt&quot;&gt;&lt;span style=&quot;color: #808080 ; font-style: italic&quot;&gt;store the index of the free variable as tempInd&lt;/span&gt;&lt;/div&gt;&lt;div style=&quot;font-size: 9.8pt&quot;&gt;tempInd = Arrays.&lt;span style=&quot;font-style: italic&quot;&gt;binarySearch&lt;/span&gt;(freeVar(), iC)&lt;/div&gt;&lt;div style=&quot;font-size: 9.8pt&quot;&gt;it returns -1 if not found&lt;/div&gt;&lt;/div&gt;" style="whiteSpace=wrap;html=1;fontFamily=Times New Roman;strokeWidth=2;" vertex="1" parent="1"><mxGeometry x="-285" y="1050" width="270" height="80" as="geometry"/></mxCell><mxCell id="98" value="yes" style="edgeStyle=orthogonalEdgeStyle;rounded=0;orthogonalLoop=1;jettySize=auto;html=1;fontFamily=Times New Roman;" edge="1" parent="1" source="95" target="97"><mxGeometry relative="1" as="geometry"/></mxCell><mxCell id="100" value="no" style="edgeStyle=orthogonalEdgeStyle;rounded=0;orthogonalLoop=1;jettySize=auto;html=1;fontFamily=Times New Roman;" edge="1" parent="1" source="95" target="99"><mxGeometry relative="1" as="geometry"><Array as="points"><mxPoint x="50" y="1175"/><mxPoint x="50" y="1350"/></Array></mxGeometry></mxCell><mxCell id="95" value="it's a free variable&lt;br&gt;&lt;div style=&quot;background-color: rgb(255, 255, 255); font-size: 9.8pt;&quot;&gt;tempInd &amp;gt;= &lt;span style=&quot;color: #0000ff&quot;&gt;0&lt;/span&gt;&lt;/div&gt;" style="rhombus;whiteSpace=wrap;html=1;fontFamily=Times New Roman;strokeWidth=2;" vertex="1" parent="1"><mxGeometry x="-245" y="1150" width="190" height="49.37" as="geometry"/></mxCell><mxCell id="103" style="edgeStyle=orthogonalEdgeStyle;rounded=0;orthogonalLoop=1;jettySize=auto;html=1;exitX=0;exitY=0.5;exitDx=0;exitDy=0;entryX=0;entryY=0.5;entryDx=0;entryDy=0;fontFamily=Times New Roman;" edge="1" parent="1" source="97" target="101"><mxGeometry relative="1" as="geometry"/></mxCell><mxCell id="124" style="edgeStyle=none;rounded=0;orthogonalLoop=1;jettySize=auto;html=1;exitX=1;exitY=0;exitDx=0;exitDy=0;dashed=1;dashPattern=1 1;fontFamily=Times New Roman;entryX=0;entryY=1;entryDx=0;entryDy=0;" edge="1" parent="1" source="97" target="17"><mxGeometry relative="1" as="geometry"><mxPoint x="260" y="600" as="targetPoint"/></mxGeometry></mxCell><mxCell id="97" value="&lt;div style=&quot;background-color: rgb(255, 255, 255); font-size: 9.8pt;&quot;&gt;&lt;span style=&quot;color: #808080 ; font-style: italic&quot;&gt;subtract the value from the corresponding place&lt;/span&gt;&lt;/div&gt;&lt;div style=&quot;background-color: rgb(255, 255, 255); font-size: 9.8pt;&quot;&gt;&lt;div style=&quot;font-size: 9.8pt;&quot;&gt;&lt;span style=&quot;color: #660e7a ; font-weight: bold&quot;&gt;sol&lt;/span&gt;[tempInd + &lt;span style=&quot;color: #0000ff&quot;&gt;1&lt;/span&gt;][pC] = &lt;span style=&quot;color: #660e7a ; font-weight: bold&quot;&gt;sol&lt;/span&gt;[tempInd + &lt;span style=&quot;color: #0000ff&quot;&gt;1&lt;/span&gt;][pC].subtract(tempDec)&lt;/div&gt;&lt;/div&gt;" style="whiteSpace=wrap;html=1;fontFamily=Times New Roman;strokeWidth=2;" vertex="1" parent="1"><mxGeometry x="-330" y="1230" width="360" height="60" as="geometry"/></mxCell><mxCell id="105" value="" style="edgeStyle=orthogonalEdgeStyle;rounded=0;orthogonalLoop=1;jettySize=auto;html=1;fontFamily=Times New Roman;" edge="1" parent="1" source="99" target="104"><mxGeometry relative="1" as="geometry"/></mxCell><mxCell id="125" style="edgeStyle=none;rounded=0;orthogonalLoop=1;jettySize=auto;html=1;exitX=1;exitY=0;exitDx=0;exitDy=0;dashed=1;dashPattern=1 1;fontFamily=Times New Roman;entryX=0;entryY=1;entryDx=0;entryDy=0;" edge="1" parent="1" source="99" target="17"><mxGeometry relative="1" as="geometry"><mxPoint x="260" y="598.6206896551724" as="targetPoint"/></mxGeometry></mxCell><mxCell id="99" value="&lt;div style=&quot;background-color: rgb(255 , 255 , 255) ; font-size: 9.8pt&quot;&gt;&lt;span style=&quot;color: rgb(128 , 128 , 128) ; font-style: italic&quot;&gt;subtract the constant from the corresponding place&lt;/span&gt;&lt;/div&gt;&lt;div&gt;&lt;div style=&quot;background-color: rgb(255, 255, 255); font-size: 9.8pt;&quot;&gt;&lt;span style=&quot;color: #660e7a ; font-weight: bold&quot;&gt;sol&lt;/span&gt;[&lt;span style=&quot;color: #0000ff&quot;&gt;0&lt;/span&gt;][pC] = &lt;span style=&quot;color: #660e7a ; font-weight: bold&quot;&gt;sol&lt;/span&gt;[&lt;span style=&quot;color: #0000ff&quot;&gt;0&lt;/span&gt;][pC].subtract(&lt;span style=&quot;color: #660e7a ; font-weight: bold&quot;&gt;sol&lt;/span&gt;[&lt;span style=&quot;color: #0000ff&quot;&gt;0&lt;/span&gt;][iC].multiply(tempDec))&lt;/div&gt;&lt;/div&gt;&lt;div style=&quot;background-color: rgb(255 , 255 , 255) ; font-size: 9.8pt&quot;&gt;&lt;/div&gt;" style="whiteSpace=wrap;html=1;fontFamily=Times New Roman;strokeWidth=2;" vertex="1" parent="1"><mxGeometry x="-297.5" y="1310" width="300" height="60" as="geometry"/></mxCell><mxCell id="102" value="" style="edgeStyle=orthogonalEdgeStyle;rounded=0;orthogonalLoop=1;jettySize=auto;html=1;fontFamily=Times New Roman;" edge="1" parent="1" source="101" target="91"><mxGeometry relative="1" as="geometry"/></mxCell><mxCell id="119" style="rounded=0;orthogonalLoop=1;jettySize=auto;html=1;exitX=1;exitY=0;exitDx=0;exitDy=0;entryX=0;entryY=1;entryDx=0;entryDy=0;fontFamily=Times New Roman;dashed=1;dashPattern=1 1;" edge="1" parent="1" source="101" target="44"><mxGeometry relative="1" as="geometry"/></mxCell><mxCell id="101" value="iC++" style="whiteSpace=wrap;html=1;fontFamily=Times New Roman;strokeWidth=2;" vertex="1" parent="1"><mxGeometry x="-320" y="978.74" width="60" height="20.01" as="geometry"/></mxCell><mxCell id="107" value="" style="edgeStyle=orthogonalEdgeStyle;rounded=0;orthogonalLoop=1;jettySize=auto;html=1;fontFamily=Times New Roman;" edge="1" parent="1" source="104" target="106"><mxGeometry relative="1" as="geometry"/></mxCell><mxCell id="126" style="edgeStyle=none;rounded=0;orthogonalLoop=1;jettySize=auto;html=1;exitX=1;exitY=0;exitDx=0;exitDy=0;dashed=1;dashPattern=1 1;fontFamily=Times New Roman;entryX=0;entryY=1;entryDx=0;entryDy=0;" edge="1" parent="1" source="104" target="127"><mxGeometry relative="1" as="geometry"><mxPoint x="270" y="1145.51724137931" as="targetPoint"/></mxGeometry></mxCell><mxCell id="104" value="check to the right of the pivot and left to the constant&lt;br&gt;&lt;div style=&quot;background-color: rgb(255, 255, 255); font-size: 9.8pt;&quot;&gt;jR = piNow + &lt;span style=&quot;color: #0000ff&quot;&gt;1&lt;/span&gt;&lt;/div&gt;" style="whiteSpace=wrap;html=1;fontFamily=Times New Roman;strokeWidth=2;" vertex="1" parent="1"><mxGeometry x="-263.75" y="1400" width="232.5" height="50" as="geometry"/></mxCell><mxCell id="109" value="no" style="edgeStyle=orthogonalEdgeStyle;rounded=0;orthogonalLoop=1;jettySize=auto;html=1;exitX=0;exitY=0.5;exitDx=0;exitDy=0;entryX=0;entryY=0.5;entryDx=0;entryDy=0;fontFamily=Times New Roman;" edge="1" parent="1" source="106" target="101"><mxGeometry x="-0.8321" relative="1" as="geometry"><Array as="points"><mxPoint x="-350" y="1502"/><mxPoint x="-350" y="989"/></Array><mxPoint as="offset"/></mxGeometry></mxCell><mxCell id="111" value="yes" style="edgeStyle=orthogonalEdgeStyle;rounded=0;orthogonalLoop=1;jettySize=auto;html=1;fontFamily=Times New Roman;" edge="1" parent="1" source="106" target="110"><mxGeometry relative="1" as="geometry"/></mxCell><mxCell id="106" value="enough rows&lt;br&gt;&lt;div style=&quot;background-color: rgb(255, 255, 255); font-size: 9.8pt;&quot;&gt;jR &amp;lt; &lt;span style=&quot;color: #660e7a ; font-weight: bold&quot;&gt;co&lt;/span&gt;&lt;/div&gt;" style="rhombus;whiteSpace=wrap;html=1;fontFamily=Times New Roman;strokeWidth=2;" vertex="1" parent="1"><mxGeometry x="-223.75" y="1480" width="152.5" height="45" as="geometry"/></mxCell><mxCell id="113" value="" style="edgeStyle=orthogonalEdgeStyle;rounded=0;orthogonalLoop=1;jettySize=auto;html=1;fontFamily=Times New Roman;" edge="1" parent="1" source="110" target="112"><mxGeometry relative="1" as="geometry"/></mxCell><mxCell id="129" style="edgeStyle=none;rounded=0;orthogonalLoop=1;jettySize=auto;html=1;exitX=1;exitY=0;exitDx=0;exitDy=0;dashed=1;dashPattern=1 1;fontFamily=Times New Roman;entryX=0;entryY=1;entryDx=0;entryDy=0;" edge="1" parent="1" source="110" target="17"><mxGeometry relative="1" as="geometry"><mxPoint x="260" y="597.2413793103449" as="targetPoint"/></mxGeometry></mxCell><mxCell id="110" value="&lt;div style=&quot;background-color: rgb(255 , 255 , 255) ; color: rgb(0 , 0 , 0) ; font-size: 9.8pt&quot;&gt;&lt;span style=&quot;color: #808080 ; font-style: italic&quot;&gt;store the index of the free variable as tempInd&lt;/span&gt;&lt;/div&gt;&lt;div style=&quot;background-color: rgb(255 , 255 , 255) ; color: rgb(0 , 0 , 0) ; font-size: 9.8pt&quot;&gt;&lt;div style=&quot;font-size: 9.8pt&quot;&gt;tempInd = Arrays.&lt;span style=&quot;font-style: italic&quot;&gt;binarySearch&lt;/span&gt;(freeVar(), jR)&lt;/div&gt;&lt;div style=&quot;font-size: 9.8pt&quot;&gt;&lt;span style=&quot;color: #808080 ; font-style: italic&quot;&gt;subtract the free variables&lt;/span&gt;&lt;/div&gt;&lt;div style=&quot;font-size: 9.8pt&quot;&gt;&lt;span style=&quot;color: #000080 ; font-weight: bold&quot;&gt;if &lt;/span&gt;(tempInd &amp;gt; &lt;span style=&quot;color: #0000ff&quot;&gt;0&lt;/span&gt;) &lt;span style=&quot;color: #660e7a ; font-weight: bold&quot;&gt;sol&lt;/span&gt;[tempInd + &lt;span style=&quot;color: #0000ff&quot;&gt;1&lt;/span&gt;][pC] =&lt;span style=&quot;font-size: 9.8pt&quot;&gt;&amp;nbsp;&lt;/span&gt;&lt;/div&gt;&lt;div style=&quot;font-size: 9.8pt&quot;&gt;&lt;span style=&quot;font-size: 9.8pt&quot;&gt;&amp;nbsp;&lt;/span&gt;&lt;span style=&quot;font-size: 9.8pt ; color: rgb(102 , 14 , 122) ; font-weight: bold&quot;&gt;sol&lt;/span&gt;&lt;span style=&quot;font-size: 9.8pt&quot;&gt;[tempInd + &lt;/span&gt;&lt;span style=&quot;font-size: 9.8pt ; color: rgb(0 , 0 , 255)&quot;&gt;1&lt;/span&gt;&lt;span style=&quot;font-size: 9.8pt&quot;&gt;][pC].subtract(&lt;/span&gt;&lt;span style=&quot;font-size: 9.8pt ; color: rgb(102 , 14 , 122) ; font-weight: bold&quot;&gt;sol&lt;/span&gt;&lt;span style=&quot;font-size: 9.8pt&quot;&gt;[tempInd + &lt;/span&gt;&lt;span style=&quot;font-size: 9.8pt ; color: rgb(0 , 0 , 255)&quot;&gt;1&lt;/span&gt;&lt;span style=&quot;font-size: 9.8pt&quot;&gt;][iC].multiply(tempDec))&lt;/span&gt;&lt;/div&gt;&lt;/div&gt;" style="whiteSpace=wrap;html=1;fontFamily=Times New Roman;strokeWidth=2;" vertex="1" parent="1"><mxGeometry x="-348.75" y="1560" width="402.5" height="82.5" as="geometry"/></mxCell><mxCell id="114" style="edgeStyle=orthogonalEdgeStyle;rounded=0;orthogonalLoop=1;jettySize=auto;html=1;exitX=0;exitY=0.5;exitDx=0;exitDy=0;entryX=1;entryY=0.5;entryDx=0;entryDy=0;fontFamily=Times New Roman;" edge="1" parent="1" source="112" target="106"><mxGeometry relative="1" as="geometry"/></mxCell><mxCell id="128" style="edgeStyle=none;rounded=0;orthogonalLoop=1;jettySize=auto;html=1;exitX=1;exitY=0;exitDx=0;exitDy=0;entryX=0;entryY=1;entryDx=0;entryDy=0;dashed=1;dashPattern=1 1;fontFamily=Times New Roman;" edge="1" parent="1" source="112" target="127"><mxGeometry relative="1" as="geometry"/></mxCell><mxCell id="112" value="jR++" style="whiteSpace=wrap;html=1;fontFamily=Times New Roman;strokeWidth=2;" vertex="1" parent="1"><mxGeometry x="60" y="1488.13" width="45" height="28.75" as="geometry"/></mxCell><mxCell id="118" style="edgeStyle=orthogonalEdgeStyle;rounded=0;orthogonalLoop=1;jettySize=auto;html=1;exitX=0.5;exitY=1;exitDx=0;exitDy=0;entryX=0.5;entryY=0;entryDx=0;entryDy=0;entryPerimeter=0;fontFamily=Times New Roman;" edge="1" parent="1" source="115" target="117"><mxGeometry relative="1" as="geometry"/></mxCell><mxCell id="115" value="&lt;div style=&quot;background-color: rgb(255, 255, 255); color: rgb(0, 0, 0); font-size: 9.8pt;&quot;&gt;&lt;span style=&quot;color: #808080 ; font-style: italic&quot;&gt;translate the 2D array to vector array&lt;/span&gt;&lt;/div&gt;&lt;div style=&quot;background-color: rgb(255, 255, 255); color: rgb(0, 0, 0); font-size: 9.8pt;&quot;&gt;&lt;div style=&quot;font-size: 9.8pt;&quot;&gt;&lt;span style=&quot;color: #000080 ; font-weight: bold&quot;&gt;for &lt;/span&gt;(&lt;span style=&quot;color: #000080 ; font-weight: bold&quot;&gt;int &lt;/span&gt;i = &lt;span style=&quot;color: #0000ff&quot;&gt;0&lt;/span&gt;; i &amp;lt; freeVar().&lt;span style=&quot;color: #660e7a ; font-weight: bold&quot;&gt;length &lt;/span&gt;+ &lt;span style=&quot;color: #0000ff&quot;&gt;1&lt;/span&gt;; i++) result[i] = &lt;span style=&quot;color: #000080 ; font-weight: bold&quot;&gt;new &lt;/span&gt;VectorBD(&lt;span style=&quot;color: #660e7a ; font-weight: bold&quot;&gt;sol&lt;/span&gt;[i])&lt;/div&gt;&lt;/div&gt;" style="whiteSpace=wrap;html=1;fontFamily=Times New Roman;strokeWidth=2;" vertex="1" parent="1"><mxGeometry x="-350" y="1680" width="410" height="40" as="geometry"/></mxCell><mxCell id="117" value="return result" style="strokeWidth=2;html=1;shape=mxgraph.flowchart.terminator;whiteSpace=wrap;fontFamily=Times New Roman;" vertex="1" parent="1"><mxGeometry x="-195" y="1750" width="100" height="20" as="geometry"/></mxCell><mxCell id="120" value="tempDec" style="shape=parallelogram;html=1;strokeWidth=2;perimeter=parallelogramPerimeter;whiteSpace=wrap;rounded=1;arcSize=12;size=0.23;fontFamily=Times New Roman;" vertex="1" parent="1"><mxGeometry x="260" y="990" width="100" height="20" as="geometry"/></mxCell><mxCell id="122" value="tempInd" style="shape=parallelogram;html=1;strokeWidth=2;perimeter=parallelogramPerimeter;whiteSpace=wrap;rounded=1;arcSize=12;size=0.23;fontFamily=Times New Roman;" vertex="1" parent="1"><mxGeometry x="260" y="1050" width="100" height="20" as="geometry"/></mxCell><mxCell id="127" value="jR" style="shape=parallelogram;html=1;strokeWidth=2;perimeter=parallelogramPerimeter;whiteSpace=wrap;rounded=1;arcSize=12;size=0.23;fontFamily=Times New Roman;" vertex="1" parent="1"><mxGeometry x="260" y="1415" width="100" height="20" as="geometry"/></mxCell></root></mxGraphModel></diagram></mxfile>